<svg xmlns="http://www.w3.org/2000/svg" xmlns:xlink="http://www.w3.org/1999/xlink" width="1920" height="898" viewBox="0 0 1920 898">
  <defs>
    <clipPath id="clip-Web_1920_1">
      <rect width="1920" height="898"/>
    </clipPath>
  </defs>
  <g id="Web_1920_1" data-name="Web 1920 – 1" clip-path="url(#clip-Web_1920_1)">
    <rect width="1920" height="898" fill="#48355b"/>
    <rect id="Rectangle_2" data-name="Rectangle 2" width="1978" height="304" transform="translate(-10 667)" fill="#e7e4e4"/>
    <ellipse id="Ellipse_14" data-name="Ellipse 14" cx="202" cy="105.5" rx="202" ry="105.5" transform="translate(-69.009 461.699) rotate(9)" fill="#e7e4e4"/>
    <ellipse id="Ellipse_15" data-name="Ellipse 15" cx="370.5" cy="57" rx="370.5" ry="57" transform="translate(-181 646)" fill="#e7e4e4"/>
    <ellipse id="Ellipse_16" data-name="Ellipse 16" cx="202" cy="85.5" rx="202" ry="85.5" transform="translate(158 580)" fill="#e7e4e4"/>
    <ellipse id="Ellipse_17" data-name="Ellipse 17" cx="202" cy="85.5" rx="202" ry="85.5" transform="translate(481 561)" fill="#e7e4e4"/>
    <ellipse id="Ellipse_18" data-name="Ellipse 18" cx="202" cy="85.5" rx="202" ry="85.5" transform="translate(777 589)" fill="#e7e4e4"/>
    <ellipse id="Ellipse_19" data-name="Ellipse 19" cx="202" cy="85.5" rx="202" ry="85.5" transform="translate(1082 582)" fill="#e7e4e4"/>
    <ellipse id="Ellipse_20" data-name="Ellipse 20" cx="202" cy="85.5" rx="202" ry="85.5" transform="translate(1408 579)" fill="#e7e4e4"/>
    <ellipse id="Ellipse_21" data-name="Ellipse 21" cx="202" cy="117.5" rx="202" ry="117.5" transform="translate(1695 492)" fill="#e7e4e4"/>
    <ellipse id="Ellipse_6" data-name="Ellipse 6" cx="202" cy="85.5" rx="202" ry="85.5" transform="translate(-41 664)" fill="#fff"/>
    <ellipse id="Ellipse_7" data-name="Ellipse 7" cx="370.5" cy="57" rx="370.5" ry="57" transform="translate(-181 690)" fill="#fff"/>
    <ellipse id="Ellipse_8" data-name="Ellipse 8" cx="231.5" cy="85.5" rx="231.5" ry="85.5" transform="matrix(0.995, 0.105, -0.105, 0.995, -62.795, 579.27)" fill="#fff"/>
    <ellipse id="Ellipse_9" data-name="Ellipse 9" cx="202" cy="85.5" rx="202" ry="85.5" transform="translate(416 626)" fill="#fff"/>
    <ellipse id="Ellipse_10" data-name="Ellipse 10" cx="202" cy="85.5" rx="202" ry="85.5" transform="translate(777 633)" fill="#fff"/>
    <ellipse id="Ellipse_11" data-name="Ellipse 11" cx="202" cy="85.5" rx="202" ry="85.5" transform="translate(1082 626)" fill="#fff"/>
    <ellipse id="Ellipse_12" data-name="Ellipse 12" cx="202" cy="85.5" rx="202" ry="85.5" transform="translate(1396 662)" fill="#fff"/>
    <ellipse id="Ellipse_13" data-name="Ellipse 13" cx="202" cy="85.5" rx="202" ry="85.5" transform="translate(1681 613)" fill="#fff"/>
    <ellipse id="Ellipse_22" data-name="Ellipse 22" cx="239" cy="88" rx="239" ry="88" transform="translate(-68.158 597.407) rotate(13)" fill="#e7e4e4"/>
    <ellipse id="Ellipse_25" data-name="Ellipse 25" cx="202" cy="85.5" rx="202" ry="85.5" transform="translate(485 683)" fill="#e7e4e4"/>
    <ellipse id="Ellipse_30" data-name="Ellipse 30" cx="202" cy="85.5" rx="202" ry="85.5" transform="translate(-88 683)" fill="#fff"/>
    <ellipse id="Ellipse_29" data-name="Ellipse 29" cx="202" cy="85.5" rx="202" ry="85.5" transform="translate(1718 684)" fill="#e7e4e4"/>
    <ellipse id="Ellipse_28" data-name="Ellipse 28" cx="202" cy="85.5" rx="202" ry="85.5" transform="translate(1400 712)" fill="#e7e4e4"/>
    <ellipse id="Ellipse_27" data-name="Ellipse 27" cx="202" cy="85.5" rx="202" ry="85.5" transform="translate(1086 689)" fill="#e7e4e4"/>
    <rect id="Rectangle_1" data-name="Rectangle 1" width="1978" height="567" transform="translate(0 741)" fill="#fff"/>
    <ellipse id="Ellipse_37" data-name="Ellipse 37" cx="202" cy="85.5" rx="202" ry="85.5" transform="translate(1626 731)" fill="#fff"/>
    <ellipse id="Ellipse_33" data-name="Ellipse 33" cx="202" cy="85.5" rx="202" ry="85.5" transform="translate(416 850)" fill="#fff"/>
    <ellipse id="Ellipse_35" data-name="Ellipse 35" cx="202" cy="85.5" rx="202" ry="85.5" transform="translate(1086 727)" fill="#fff"/>
    <ellipse id="Ellipse_34" data-name="Ellipse 34" cx="202" cy="85.5" rx="202" ry="85.5" transform="translate(777 711)" fill="#fff"/>
    <ellipse id="Ellipse_32" data-name="Ellipse 32" cx="202" cy="85.5" rx="202" ry="85.5" transform="translate(174 750)" fill="#fff"/>
    <ellipse id="Ellipse_36" data-name="Ellipse 36" cx="202" cy="85.5" rx="202" ry="85.5" transform="translate(1400 784)" fill="#fff"/>
    <ellipse id="Ellipse_31" data-name="Ellipse 31" cx="370.5" cy="57" rx="370.5" ry="57" transform="translate(-177 812)" fill="#fff"/>
    <ellipse id="Ellipse_38" data-name="Ellipse 38" cx="202" cy="85.5" rx="202" ry="85.5" transform="translate(331 703)" fill="#fff"/>
    <ellipse id="Ellipse_39" data-name="Ellipse 39" cx="202" cy="85.5" rx="202" ry="85.5" transform="translate(1222 711)" fill="#fff"/>
    <ellipse id="Ellipse_40" data-name="Ellipse 40" cx="202" cy="85.5" rx="202" ry="85.5" transform="translate(1626 727)" fill="#fff"/>
    <ellipse id="Ellipse_41" data-name="Ellipse 41" cx="232" cy="85.5" rx="232" ry="85.5" transform="translate(-88 683)" fill="#fff"/>
  </g>
</svg>
